<?xml version="1.0" encoding="utf-8"?>
<!-- Generator: Adobe Illustrator 25.0.1, SVG Export Plug-In . SVG Version: 6.00 Build 0)  -->
<svg version="1.1" id="Layer_1" xmlns="http://www.w3.org/2000/svg" xmlns:xlink="http://www.w3.org/1999/xlink" x="0px" y="0px"
	 viewBox="0 0 2560 431.7" style="enable-background:new 0 0 2560 431.7;" xml:space="preserve">
<style type="text/css">
	.st0{fill:#181A2A;}
	.st1{fill:#4B6BFB;}
	.st2{fill:#B3C5EF;}
	.st3{fill:#3ABFF8;}
</style>
<g>
	<g>
		<g>
			<path class="st0" d="M111.09,166.54L276.4,409.27c-52.19-33.44-139.27-63.57-257.32-16.57L111.09,166.54z"/>
			<path class="st0" d="M289.65,227.39c0,17.37,10.12,32.34,24.78,39.44v130.41l-186.04-273.2l41.27-101.4
				c0,0,117.74-9.01,163.86,80.82v80.1C309.27,183.56,289.65,203.19,289.65,227.39z"/>
		</g>
		<g>
			<path class="st1" d="M377.34,227.39c0-24.2-19.62-43.83-43.83-43.83v-80.1c46.12-89.83,163.82-80.82,163.82-80.82l41.27,101.44
				l-186,273.16V266.83C367.22,259.73,377.34,244.76,377.34,227.39z"/>
			<path class="st1" d="M647.9,392.7c-118.04-47-205.13-16.87-257.32,16.61L555.9,166.54L647.9,392.7z"/>
		</g>
	</g>
	<g>
		<path class="st0" d="M798.98,137.89c3.74,0,6.99,1.23,9.76,3.7c2.77,2.47,4.15,5.57,4.15,9.31c0,1.95-0.45,3.97-1.35,6.06
			l-55.41,129.66c-1.35,3-3.25,5.2-5.72,6.62c-2.47,1.42-4.98,2.13-7.52,2.13c-2.4-0.15-4.71-0.93-6.95-2.36
			c-2.25-1.42-3.97-3.47-5.16-6.17l-55.41-130.11c-0.45-0.9-0.75-1.83-0.9-2.8c-0.15-0.97-0.22-1.91-0.22-2.8
			c0-4.34,1.57-7.66,4.71-9.98c3.14-2.32,6.13-3.48,8.97-3.48c5.68,0,9.79,2.92,12.34,8.75l49.13,115.53l-7.85,0.22l45.09-115.76
			C789.18,140.74,793.29,137.89,798.98,137.89z"/>
		<path class="st0" d="M885.57,297.62c-12.71,0-23.74-2.65-33.09-7.96c-9.35-5.31-16.53-12.52-21.54-21.65
			c-5.01-9.12-7.51-19.44-7.51-30.96c0-13.46,2.73-24.94,8.19-34.43c5.46-9.5,12.6-16.79,21.42-21.88
			c8.82-5.08,18.17-7.63,28.04-7.63c7.63,0,14.84,1.57,21.65,4.71c6.8,3.14,12.82,7.44,18.06,12.9c5.23,5.46,9.38,11.78,12.45,18.96
			c3.06,7.18,4.6,14.81,4.6,22.88c-0.15,3.59-1.57,6.51-4.26,8.75c-2.69,2.24-5.83,3.37-9.42,3.37h-85.7l-6.73-22.43h82.33
			l-4.94,4.49v-6.06c-0.3-4.34-1.83-8.23-4.6-11.67c-2.77-3.44-6.21-6.17-10.32-8.19c-4.12-2.02-8.49-3.03-13.12-3.03
			c-4.49,0-8.68,0.6-12.56,1.8c-3.89,1.2-7.26,3.22-10.1,6.06c-2.84,2.84-5.09,6.66-6.73,11.44c-1.65,4.79-2.47,10.85-2.47,18.17
			c0,8.08,1.68,14.92,5.05,20.53c3.37,5.61,7.7,9.87,13.01,12.79c5.31,2.92,10.95,4.37,16.94,4.37c5.53,0,9.94-0.45,13.23-1.35
			c3.29-0.9,5.95-1.98,7.97-3.25c2.02-1.27,3.85-2.36,5.5-3.25c2.69-1.35,5.23-2.02,7.63-2.02c3.29,0,6.02,1.12,8.19,3.37
			c2.17,2.25,3.25,4.86,3.25,7.85c0,4.04-2.1,7.71-6.28,10.99c-3.89,3.29-9.35,6.17-16.38,8.64
			C900.3,296.38,893.05,297.62,885.57,297.62z"/>
		<path class="st0" d="M1025.56,173.11c11.06,0,19.48,2.32,25.24,6.96c5.76,4.64,9.72,10.8,11.89,18.51
			c2.17,7.71,3.25,16.26,3.25,25.69v57.43c0,3.89-1.27,7.14-3.81,9.75c-2.55,2.62-5.76,3.93-9.65,3.93c-3.89,0-7.1-1.31-9.65-3.93
			c-2.55-2.61-3.81-5.86-3.81-9.75v-57.43c0-4.94-0.64-9.38-1.91-13.34c-1.27-3.96-3.55-7.14-6.84-9.53
			c-3.29-2.39-8-3.59-14.13-3.59c-5.98,0-11.03,1.2-15.14,3.59s-7.26,5.57-9.42,9.53c-2.17,3.96-3.25,8.41-3.25,13.34v57.43
			c0,3.89-1.27,7.14-3.81,9.75c-2.55,2.62-5.76,3.93-9.65,3.93c-3.89,0-7.11-1.31-9.65-3.93c-2.55-2.61-3.81-5.86-3.81-9.75v-92.65
			c0-3.89,1.27-7.14,3.81-9.76c2.54-2.61,5.76-3.92,9.65-3.92c3.89,0,7.1,1.31,9.65,3.92c2.54,2.62,3.81,5.87,3.81,9.76v9.65
			l-3.37-0.67c1.35-2.54,3.29-5.27,5.83-8.19c2.54-2.92,5.53-5.64,8.97-8.19c3.44-2.54,7.33-4.6,11.66-6.17
			C1015.76,173.9,1020.47,173.11,1025.56,173.11z"/>
		<path class="st0" d="M1184.16,175.36c3.89,0,7.1,1.31,9.65,3.92c2.54,2.62,3.81,5.87,3.81,9.76v56.98
			c0,15.85-4.41,28.41-13.24,37.69c-8.83,9.28-21.54,13.91-38.14,13.91c-16.6,0-29.27-4.64-38.03-13.91
			c-8.75-9.27-13.12-21.83-13.12-37.69v-56.98c0-3.89,1.27-7.14,3.81-9.76c2.54-2.61,5.76-3.92,9.65-3.92c3.89,0,7.1,1.31,9.65,3.92
			c2.54,2.62,3.81,5.87,3.81,9.76v56.98c0,9.12,2.02,15.89,6.06,20.3c4.04,4.42,10.09,6.62,18.17,6.62c8.22,0,14.36-2.2,18.4-6.62
			c4.04-4.41,6.06-11.18,6.06-20.3v-56.98c0-3.89,1.27-7.14,3.81-9.76C1177.05,176.67,1180.27,175.36,1184.16,175.36z"/>
		<path class="st0" d="M1219.83,276.76c-1.5-2.1-2.17-4.79-2.02-8.08c0.15-3.29,2.09-6.13,5.83-8.53c2.39-1.5,4.94-2.13,7.63-1.91
			c2.69,0.23,5.31,1.61,7.85,4.15c4.34,4.34,8.9,7.7,13.68,10.09c4.79,2.4,10.77,3.59,17.95,3.59c2.24-0.15,4.71-0.48,7.4-1.01
			c2.69-0.52,5.05-1.72,7.07-3.59c2.02-1.87,3.03-4.75,3.03-8.64c0-3.29-1.12-5.91-3.37-7.85c-2.24-1.94-5.2-3.59-8.86-4.94
			c-3.67-1.35-7.74-2.62-12.22-3.81c-4.64-1.35-9.39-2.84-14.25-4.49c-4.86-1.64-9.31-3.77-13.35-6.39
			c-4.04-2.61-7.33-6.09-9.87-10.43c-2.54-4.34-3.81-9.79-3.81-16.38c0-7.48,2.09-13.83,6.28-19.07c4.19-5.23,9.61-9.27,16.26-12.11
			c6.65-2.84,13.64-4.27,20.98-4.27c4.63,0,9.5,0.56,14.58,1.68c5.08,1.12,9.94,2.92,14.58,5.39c4.64,2.47,8.53,5.72,11.67,9.76
			c1.64,2.24,2.62,4.94,2.92,8.08c0.3,3.14-1.12,5.98-4.26,8.52c-2.25,1.8-4.86,2.58-7.85,2.36c-2.99-0.22-5.46-1.23-7.4-3.03
			c-2.55-3.29-5.95-5.91-10.21-7.85c-4.26-1.95-9.16-2.92-14.69-2.92c-2.25,0-4.68,0.26-7.29,0.78c-2.62,0.52-4.9,1.65-6.84,3.37
			c-1.95,1.72-2.92,4.45-2.92,8.19c0,3.44,1.12,6.17,3.37,8.19c2.24,2.02,5.27,3.67,9.08,4.94c3.82,1.27,7.89,2.5,12.23,3.7
			c4.49,1.2,9.05,2.62,13.68,4.27c4.63,1.65,8.9,3.81,12.79,6.51c3.89,2.69,7.03,6.17,9.42,10.43c2.39,4.26,3.59,9.68,3.59,16.26
			c0,7.63-2.24,14.13-6.73,19.52c-4.49,5.38-10.09,9.46-16.82,12.22c-6.73,2.77-13.61,4.15-20.64,4.15c-8.83,0-17.65-1.54-26.47-4.6
			C1232.99,289.96,1225.66,284.53,1219.83,276.76z"/>
		<path class="st0" d="M1403.56,164.14c-3.89,0-7.15-1.2-9.76-3.59c-2.62-2.39-3.93-5.53-3.93-9.42c0-3.89,1.31-6.99,3.93-9.31
			c2.61-2.32,5.87-3.48,9.76-3.48h99.6c3.89,0,7.14,1.2,9.76,3.59c2.62,2.39,3.93,5.53,3.93,9.42c0,3.89-1.31,6.99-3.93,9.31
			c-2.62,2.32-5.87,3.48-9.76,3.48H1403.56z M1453.13,295.38c-4.19,0-7.63-1.31-10.32-3.93c-2.69-2.61-4.04-5.86-4.04-9.75V151.58
			h29.16v130.11c0,3.89-1.39,7.14-4.15,9.75C1461.02,294.07,1457.47,295.38,1453.13,295.38z"/>
		<path class="st0" d="M1567.77,297.62c-12.71,0-23.74-2.65-33.09-7.96c-9.35-5.31-16.53-12.52-21.54-21.65
			c-5.01-9.12-7.51-19.44-7.51-30.96c0-13.46,2.73-24.94,8.19-34.43c5.46-9.5,12.6-16.79,21.42-21.88
			c8.82-5.08,18.17-7.63,28.04-7.63c7.63,0,14.84,1.57,21.65,4.71c6.8,3.14,12.82,7.44,18.06,12.9c5.23,5.46,9.38,11.78,12.45,18.96
			c3.06,7.18,4.6,14.81,4.6,22.88c-0.15,3.59-1.57,6.51-4.26,8.75c-2.69,2.24-5.83,3.37-9.42,3.37h-85.7l-6.73-22.43h82.33
			l-4.94,4.49v-6.06c-0.3-4.34-1.83-8.23-4.6-11.67c-2.77-3.44-6.21-6.17-10.32-8.19c-4.12-2.02-8.49-3.03-13.12-3.03
			c-4.49,0-8.68,0.6-12.56,1.8c-3.89,1.2-7.26,3.22-10.1,6.06c-2.84,2.84-5.09,6.66-6.73,11.44c-1.65,4.79-2.47,10.85-2.47,18.17
			c0,8.08,1.68,14.92,5.05,20.53c3.37,5.61,7.7,9.87,13.01,12.79c5.31,2.92,10.95,4.37,16.94,4.37c5.53,0,9.94-0.45,13.23-1.35
			c3.29-0.9,5.95-1.98,7.97-3.25c2.02-1.27,3.85-2.36,5.5-3.25c2.69-1.35,5.23-2.02,7.63-2.02c3.29,0,6.02,1.12,8.19,3.37
			c2.17,2.25,3.25,4.86,3.25,7.85c0,4.04-2.1,7.71-6.28,10.99c-3.89,3.29-9.35,6.17-16.38,8.64
			C1582.5,296.38,1575.24,297.62,1567.77,297.62z"/>
		<path class="st0" d="M1636.63,276.76c-1.5-2.1-2.17-4.79-2.02-8.08c0.15-3.29,2.09-6.13,5.83-8.53c2.39-1.5,4.94-2.13,7.63-1.91
			c2.69,0.23,5.31,1.61,7.85,4.15c4.34,4.34,8.9,7.7,13.68,10.09c4.79,2.4,10.77,3.59,17.95,3.59c2.24-0.15,4.71-0.48,7.4-1.01
			c2.69-0.52,5.05-1.72,7.07-3.59c2.02-1.87,3.03-4.75,3.03-8.64c0-3.29-1.12-5.91-3.37-7.85c-2.24-1.94-5.2-3.59-8.86-4.94
			c-3.67-1.35-7.74-2.62-12.22-3.81c-4.64-1.35-9.39-2.84-14.25-4.49c-4.86-1.64-9.31-3.77-13.35-6.39
			c-4.04-2.61-7.33-6.09-9.87-10.43c-2.54-4.34-3.81-9.79-3.81-16.38c0-7.48,2.09-13.83,6.28-19.07c4.19-5.23,9.61-9.27,16.26-12.11
			c6.65-2.84,13.64-4.27,20.98-4.27c4.63,0,9.5,0.56,14.58,1.68c5.08,1.12,9.94,2.92,14.58,5.39c4.64,2.47,8.53,5.72,11.67,9.76
			c1.64,2.24,2.62,4.94,2.92,8.08c0.3,3.14-1.12,5.98-4.26,8.52c-2.25,1.8-4.86,2.58-7.85,2.36c-2.99-0.22-5.46-1.23-7.4-3.03
			c-2.55-3.29-5.95-5.91-10.21-7.85c-4.26-1.95-9.16-2.92-14.69-2.92c-2.25,0-4.68,0.26-7.29,0.78c-2.62,0.52-4.9,1.65-6.84,3.37
			c-1.95,1.72-2.92,4.45-2.92,8.19c0,3.44,1.12,6.17,3.37,8.19c2.24,2.02,5.27,3.67,9.08,4.94c3.82,1.27,7.89,2.5,12.23,3.7
			c4.49,1.2,9.05,2.62,13.68,4.27c4.63,1.65,8.9,3.81,12.79,6.51c3.89,2.69,7.03,6.17,9.42,10.43c2.39,4.26,3.59,9.68,3.59,16.26
			c0,7.63-2.24,14.13-6.73,19.52c-4.49,5.38-10.09,9.46-16.82,12.22c-6.73,2.77-13.61,4.15-20.64,4.15c-8.83,0-17.65-1.54-26.47-4.6
			C1649.79,289.96,1642.47,284.53,1636.63,276.76z"/>
		<path class="st0" d="M1753.06,177.6h53.17c3.59,0,6.58,1.2,8.97,3.59c2.39,2.4,3.59,5.39,3.59,8.98c0,3.44-1.2,6.32-3.59,8.63
			c-2.4,2.32-5.39,3.48-8.97,3.48h-53.17c-3.59,0-6.58-1.2-8.97-3.59c-2.39-2.39-3.59-5.38-3.59-8.97c0-3.44,1.2-6.32,3.59-8.64
			C1746.48,178.76,1749.48,177.6,1753.06,177.6z M1777.07,149.56c3.89,0,7.07,1.31,9.53,3.92c2.47,2.62,3.7,5.87,3.7,9.76v99.83
			c0,2.1,0.41,3.82,1.23,5.16c0.82,1.35,1.94,2.32,3.37,2.92c1.42,0.6,2.95,0.9,4.6,0.9c1.8,0,3.44-0.34,4.94-1.01
			c1.49-0.67,3.22-1.01,5.16-1.01c2.09,0,4,0.97,5.72,2.92c1.72,1.95,2.58,4.64,2.58,8.08c0,4.19-2.28,7.63-6.84,10.32
			c-4.57,2.69-9.46,4.04-14.69,4.04c-3.14,0-6.62-0.26-10.43-0.79c-3.81-0.52-7.4-1.79-10.77-3.81c-3.37-2.02-6.17-5.12-8.41-9.31
			c-2.24-4.19-3.37-9.95-3.37-17.28V163.24c0-3.89,1.31-7.14,3.93-9.76C1769.92,150.87,1773.18,149.56,1777.07,149.56z"/>
		<path class="st0" d="M1959,297.62c-10.47,0-19.89-1.31-28.27-3.93c-8.38-2.62-16.38-7.21-24-13.79c-1.95-1.65-3.44-3.52-4.49-5.61
			c-1.05-2.09-1.57-4.19-1.57-6.28c0-3.44,1.23-6.47,3.7-9.08s5.57-3.93,9.31-3.93c2.84,0,5.38,0.9,7.63,2.7
			c5.68,4.64,11.33,8.15,16.94,10.54c5.61,2.4,12.52,3.59,20.75,3.59c5.53,0,10.62-0.86,15.25-2.58c4.63-1.72,8.37-4.04,11.22-6.95
			c2.84-2.92,4.26-6.24,4.26-9.98c0-4.49-1.35-8.3-4.04-11.44c-2.69-3.14-6.81-5.79-12.34-7.96c-5.53-2.17-12.56-3.85-21.09-5.05
			c-8.07-1.2-15.18-3.03-21.31-5.49c-6.13-2.47-11.25-5.61-15.37-9.43c-4.12-3.81-7.22-8.3-9.31-13.46
			c-2.1-5.16-3.14-10.95-3.14-17.39c0-9.72,2.5-18.02,7.51-24.9c5.01-6.88,11.78-12.11,20.3-15.7c8.52-3.59,17.95-5.39,28.27-5.39
			c9.72,0,18.73,1.46,27.03,4.38c8.3,2.92,15.06,6.61,20.3,11.1c4.34,3.44,6.51,7.4,6.51,11.89c0,3.29-1.27,6.28-3.82,8.98
			c-2.54,2.69-5.53,4.04-8.97,4.04c-2.25,0-4.26-0.67-6.06-2.02c-2.39-2.09-5.61-4.07-9.65-5.94c-4.04-1.87-8.3-3.44-12.79-4.71
			c-4.49-1.27-8.68-1.91-12.56-1.91c-6.43,0-11.85,0.82-16.26,2.47c-4.41,1.65-7.74,3.89-9.98,6.73c-2.25,2.84-3.37,6.13-3.37,9.87
			c0,4.49,1.31,8.19,3.93,11.1c2.62,2.92,6.39,5.24,11.33,6.96c4.94,1.72,10.84,3.25,17.72,4.6c8.97,1.65,16.86,3.59,23.67,5.84
			c6.8,2.24,12.45,5.12,16.94,8.63c4.49,3.52,7.85,7.93,10.09,13.24c2.25,5.31,3.37,11.78,3.37,19.41c0,9.72-2.69,18.1-8.08,25.12
			c-5.38,7.03-12.45,12.42-21.2,16.15C1978.63,295.75,1969.17,297.62,1959,297.62z"/>
		<path class="st0" d="M2096.74,297.62c-12.71,0-23.74-2.65-33.09-7.96c-9.35-5.31-16.53-12.52-21.54-21.65
			c-5.01-9.12-7.51-19.44-7.51-30.96c0-13.46,2.73-24.94,8.19-34.43c5.46-9.5,12.6-16.79,21.42-21.88
			c8.82-5.08,18.17-7.63,28.04-7.63c7.63,0,14.84,1.57,21.65,4.71c6.8,3.14,12.82,7.44,18.06,12.9c5.23,5.46,9.38,11.78,12.45,18.96
			c3.06,7.18,4.6,14.81,4.6,22.88c-0.15,3.59-1.57,6.51-4.26,8.75c-2.69,2.24-5.83,3.37-9.42,3.37h-85.7l-6.73-22.43h82.33
			l-4.94,4.49v-6.06c-0.3-4.34-1.83-8.23-4.6-11.67c-2.77-3.44-6.21-6.17-10.32-8.19c-4.12-2.02-8.49-3.03-13.12-3.03
			c-4.49,0-8.68,0.6-12.56,1.8c-3.89,1.2-7.26,3.22-10.1,6.06c-2.84,2.84-5.09,6.66-6.73,11.44c-1.65,4.79-2.47,10.85-2.47,18.17
			c0,8.08,1.68,14.92,5.05,20.53c3.37,5.61,7.7,9.87,13.01,12.79c5.31,2.92,10.95,4.37,16.94,4.37c5.53,0,9.94-0.45,13.23-1.35
			c3.29-0.9,5.95-1.98,7.97-3.25c2.02-1.27,3.85-2.36,5.5-3.25c2.69-1.35,5.23-2.02,7.63-2.02c3.29,0,6.02,1.12,8.19,3.37
			c2.17,2.25,3.25,4.86,3.25,7.85c0,4.04-2.1,7.71-6.28,10.99c-3.89,3.29-9.35,6.17-16.38,8.64
			C2111.47,296.38,2104.21,297.62,2096.74,297.62z"/>
		<path class="st0" d="M2186.02,295.38c-3.89,0-7.11-1.31-9.65-3.93c-2.55-2.61-3.81-5.86-3.81-9.75v-92.65
			c0-3.89,1.27-7.14,3.81-9.76c2.54-2.61,5.76-3.92,9.65-3.92c3.89,0,7.1,1.31,9.65,3.92c2.54,2.62,3.81,5.87,3.81,9.76v21.09
			l-1.57-15.03c1.65-3.59,3.78-6.77,6.39-9.54c2.62-2.77,5.57-5.08,8.86-6.95c3.29-1.87,6.8-3.25,10.54-4.15
			c3.74-0.9,7.48-1.35,11.22-1.35c4.49,0,8.26,1.27,11.33,3.82c3.06,2.55,4.6,5.54,4.6,8.97c0,4.94-1.27,8.49-3.81,10.66
			c-2.55,2.17-5.31,3.25-8.3,3.25c-2.84,0-5.42-0.52-7.74-1.57c-2.32-1.05-4.97-1.57-7.96-1.57c-2.69,0-5.42,0.64-8.19,1.9
			c-2.77,1.27-5.31,3.25-7.63,5.95c-2.32,2.69-4.19,6.02-5.61,9.98c-1.42,3.97-2.13,8.64-2.13,14.02v53.17
			c0,3.89-1.27,7.14-3.81,9.75C2193.12,294.07,2189.91,295.38,2186.02,295.38z"/>
		<path class="st0" d="M2281.59,160.78c-5.09,0-8.67-0.82-10.77-2.47c-2.1-1.64-3.14-4.56-3.14-8.75v-4.26
			c0-4.34,1.16-7.29,3.48-8.86c2.32-1.57,5.87-2.35,10.66-2.35c5.23,0,8.9,0.82,10.99,2.47c2.09,1.65,3.14,4.57,3.14,8.75v4.26
			c0,4.34-1.12,7.29-3.36,8.86C2290.33,159.99,2286.67,160.78,2281.59,160.78z M2295.27,281.69c0,3.89-1.27,7.14-3.81,9.75
			c-2.55,2.62-5.76,3.93-9.65,3.93c-3.89,0-7.11-1.31-9.65-3.93c-2.55-2.61-3.81-5.86-3.81-9.75v-92.65c0-3.89,1.27-7.14,3.81-9.76
			c2.54-2.61,5.76-3.92,9.65-3.92c3.89,0,7.1,1.31,9.65,3.92c2.54,2.62,3.81,5.87,3.81,9.76V281.69z"/>
		<path class="st0" d="M2379.4,297.62c-12.71,0-23.74-2.65-33.09-7.96c-9.35-5.31-16.53-12.52-21.54-21.65
			c-5.01-9.12-7.51-19.44-7.51-30.96c0-13.46,2.73-24.94,8.19-34.43c5.46-9.5,12.6-16.79,21.42-21.88
			c8.82-5.08,18.17-7.63,28.04-7.63c7.63,0,14.84,1.57,21.65,4.71c6.8,3.14,12.82,7.44,18.06,12.9c5.23,5.46,9.38,11.78,12.45,18.96
			c3.06,7.18,4.6,14.81,4.6,22.88c-0.15,3.59-1.57,6.51-4.26,8.75c-2.69,2.24-5.83,3.37-9.42,3.37h-85.7l-6.73-22.43h82.33
			l-4.94,4.49v-6.06c-0.3-4.34-1.83-8.23-4.6-11.67c-2.77-3.44-6.21-6.17-10.32-8.19c-4.12-2.02-8.49-3.03-13.12-3.03
			c-4.49,0-8.68,0.6-12.56,1.8c-3.89,1.2-7.26,3.22-10.1,6.06c-2.84,2.84-5.09,6.66-6.73,11.44c-1.65,4.79-2.47,10.85-2.47,18.17
			c0,8.08,1.68,14.92,5.05,20.53c3.37,5.61,7.7,9.87,13.01,12.79c5.31,2.92,10.95,4.37,16.94,4.37c5.53,0,9.94-0.45,13.23-1.35
			c3.29-0.9,5.95-1.98,7.97-3.25c2.02-1.27,3.85-2.36,5.5-3.25c2.69-1.35,5.23-2.02,7.63-2.02c3.29,0,6.02,1.12,8.19,3.37
			c2.17,2.25,3.25,4.86,3.25,7.85c0,4.04-2.1,7.71-6.28,10.99c-3.89,3.29-9.35,6.17-16.38,8.64
			C2394.13,296.38,2386.87,297.62,2379.4,297.62z"/>
		<path class="st0" d="M2448.26,276.76c-1.5-2.1-2.17-4.79-2.02-8.08c0.15-3.29,2.09-6.13,5.83-8.53c2.39-1.5,4.94-2.13,7.63-1.91
			c2.69,0.23,5.31,1.61,7.85,4.15c4.34,4.34,8.9,7.7,13.68,10.09c4.79,2.4,10.77,3.59,17.95,3.59c2.24-0.15,4.71-0.48,7.4-1.01
			c2.69-0.52,5.05-1.72,7.07-3.59c2.02-1.87,3.03-4.75,3.03-8.64c0-3.29-1.12-5.91-3.37-7.85c-2.24-1.94-5.2-3.59-8.86-4.94
			c-3.67-1.35-7.74-2.62-12.22-3.81c-4.64-1.35-9.39-2.84-14.25-4.49c-4.86-1.64-9.31-3.77-13.35-6.39
			c-4.04-2.61-7.33-6.09-9.87-10.43c-2.54-4.34-3.81-9.79-3.81-16.38c0-7.48,2.09-13.83,6.28-19.07c4.19-5.23,9.61-9.27,16.26-12.11
			c6.65-2.84,13.64-4.27,20.98-4.27c4.63,0,9.5,0.56,14.58,1.68c5.08,1.12,9.94,2.92,14.58,5.39c4.64,2.47,8.53,5.72,11.67,9.76
			c1.64,2.24,2.62,4.94,2.92,8.08c0.3,3.14-1.12,5.98-4.26,8.52c-2.25,1.8-4.86,2.58-7.85,2.36c-2.99-0.22-5.46-1.23-7.4-3.03
			c-2.55-3.29-5.95-5.91-10.21-7.85c-4.26-1.95-9.16-2.92-14.69-2.92c-2.25,0-4.68,0.26-7.29,0.78c-2.62,0.52-4.9,1.65-6.84,3.37
			c-1.95,1.72-2.92,4.45-2.92,8.19c0,3.44,1.12,6.17,3.37,8.19c2.24,2.02,5.27,3.67,9.08,4.94c3.82,1.27,7.89,2.5,12.23,3.7
			c4.49,1.2,9.05,2.62,13.68,4.27c4.63,1.65,8.9,3.81,12.79,6.51c3.89,2.69,7.03,6.17,9.42,10.43c2.39,4.26,3.59,9.68,3.59,16.26
			c0,7.63-2.24,14.13-6.73,19.52c-4.49,5.38-10.09,9.46-16.82,12.22c-6.73,2.77-13.61,4.15-20.64,4.15c-8.83,0-17.65-1.54-26.47-4.6
			C2461.42,289.96,2454.1,284.53,2448.26,276.76z"/>
	</g>
</g>
</svg>
