<?xml version="1.0" encoding="utf-8"?>
<!-- Generator: Adobe Illustrator 25.0.1, SVG Export Plug-In . SVG Version: 6.00 Build 0)  -->
<svg version="1.1" id="Layer_1" xmlns="http://www.w3.org/2000/svg" xmlns:xlink="http://www.w3.org/1999/xlink" x="0px" y="0px"
	 viewBox="0 0 2560 989.32" style="enable-background:new 0 0 2560 989.32;" xml:space="preserve">
<style type="text/css">
	.st0{fill:#181A2A;}
	.st1{fill:#4B6BFB;}
	.st2{fill:#B3C5EF;}
	.st3{fill:#3ABFF8;}
</style>
<g>
	<g>
		<g>
			<path class="st2" d="M902.59,266.78l280.52,411.91c-88.56-56.75-236.34-107.87-436.66-28.12L902.59,266.78z"/>
			<path class="st2" d="M1205.59,370.04c0,29.48,17.17,54.87,42.05,66.92v221.31l-315.7-463.61l70.03-172.07
				c0,0,199.8-15.29,278.06,137.15v135.92C1238.89,295.67,1205.59,328.97,1205.59,370.04z"/>
		</g>
		<g>
			<path class="st3" d="M1354.41,370.04c0-41.07-33.3-74.37-74.37-74.37V159.75c78.26-152.44,278-137.15,278-137.15l70.03,172.14
				l-315.64,463.54V436.97C1337.24,424.92,1354.41,399.52,1354.41,370.04z"/>
			<path class="st3" d="M1813.54,650.57c-200.32-79.75-348.09-28.63-436.66,28.18l280.52-411.97L1813.54,650.57z"/>
		</g>
	</g>
	<g>
		<path class="st2" d="M188.58,751.55c5.04,0,9.43,1.66,13.17,5c3.73,3.33,5.6,7.52,5.6,12.56c0,2.63-0.61,5.35-1.82,8.17
			L130.74,952.3c-1.82,4.04-4.39,7.02-7.72,8.93c-3.33,1.92-6.72,2.88-10.14,2.88c-3.23-0.2-6.36-1.26-9.39-3.18
			c-3.03-1.91-5.35-4.69-6.97-8.33L21.74,776.98c-0.6-1.21-1.01-2.47-1.21-3.78c-0.2-1.31-0.3-2.57-0.3-3.78
			c0-5.85,2.12-10.34,6.36-13.48c4.24-3.13,8.28-4.69,12.11-4.69c7.67,0,13.22,3.94,16.65,11.81L121.66,919l-10.6,0.3l60.86-156.24
			C175.36,755.39,180.9,751.55,188.58,751.55z"/>
		<path class="st2" d="M305.46,967.15c-17.16,0-32.05-3.58-44.66-10.75c-12.62-7.17-22.31-16.91-29.07-29.22
			c-6.76-12.31-10.14-26.24-10.14-41.79c0-18.16,3.68-33.66,11.05-46.48c7.36-12.82,17-22.66,28.92-29.53
			c11.91-6.86,24.53-10.29,37.85-10.29c10.29,0,20.03,2.12,29.22,6.36c9.18,4.24,17.31,10.05,24.37,17.41
			c7.06,7.37,12.67,15.9,16.81,25.59c4.13,9.69,6.21,19.99,6.21,30.89c-0.2,4.85-2.12,8.78-5.75,11.81
			c-3.63,3.02-7.87,4.54-12.72,4.54H241.87l-9.09-30.28h111.13l-6.66,6.05v-8.17c-0.41-5.85-2.47-11.1-6.21-15.75
			c-3.74-4.64-8.38-8.33-13.93-11.05c-5.55-2.73-11.46-4.09-17.71-4.09c-6.06,0-11.71,0.81-16.96,2.42
			c-5.25,1.61-9.79,4.34-13.63,8.17c-3.84,3.83-6.86,8.98-9.08,15.44c-2.22,6.46-3.33,14.64-3.33,24.52
			c0,10.9,2.27,20.14,6.81,27.71c4.54,7.57,10.39,13.32,17.56,17.26c7.16,3.94,14.79,5.9,22.86,5.9c7.47,0,13.42-0.61,17.86-1.82
			c4.44-1.21,8.03-2.68,10.75-4.39c2.72-1.71,5.19-3.18,7.42-4.39c3.63-1.82,7.06-2.73,10.29-2.73c4.44,0,8.12,1.51,11.05,4.54
			c2.92,3.03,4.39,6.56,4.39,10.6c0,5.45-2.83,10.4-8.48,14.84c-5.25,4.44-12.62,8.33-22.11,11.66
			C325.34,965.48,315.55,967.15,305.46,967.15z"/>
		<path class="st2" d="M494.4,799.09c14.93,0,26.29,3.13,34.06,9.39c7.77,6.26,13.12,14.58,16.05,24.98
			c2.93,10.4,4.39,21.95,4.39,34.67v77.52c0,5.25-1.71,9.64-5.15,13.17c-3.44,3.54-7.77,5.3-13.02,5.3c-5.25,0-9.59-1.77-13.02-5.3
			c-3.44-3.52-5.15-7.91-5.15-13.17v-77.52c0-6.66-0.86-12.67-2.57-18.01c-1.72-5.35-4.8-9.64-9.23-12.87
			c-4.44-3.23-10.8-4.85-19.08-4.85c-8.08,0-14.89,1.62-20.44,4.85s-9.79,7.52-12.72,12.87c-2.93,5.35-4.39,11.35-4.39,18.01v77.52
			c0,5.25-1.72,9.64-5.15,13.17c-3.44,3.54-7.77,5.3-13.02,5.3c-5.25,0-9.59-1.77-13.02-5.3c-3.44-3.52-5.15-7.91-5.15-13.17V820.59
			c0-5.24,1.71-9.64,5.15-13.17c3.43-3.52,7.77-5.3,13.02-5.3c5.25,0,9.58,1.77,13.02,5.3c3.43,3.54,5.15,7.93,5.15,13.17v13.02
			l-4.54-0.9c1.82-3.43,4.44-7.12,7.87-11.05c3.43-3.94,7.47-7.62,12.11-11.05c4.64-3.43,9.89-6.21,15.74-8.33
			C481.18,800.15,487.54,799.09,494.4,799.09z"/>
		<path class="st2" d="M708.48,802.12c5.24,0,9.59,1.77,13.02,5.3c3.43,3.54,5.15,7.93,5.15,13.17v76.91
			c0,21.4-5.96,38.35-17.87,50.87c-11.91,12.52-29.07,18.78-51.47,18.78c-22.41,0-39.51-6.26-51.33-18.78
			c-11.81-12.51-17.71-29.47-17.71-50.87v-76.91c0-5.24,1.71-9.64,5.15-13.17c3.43-3.52,7.77-5.3,13.02-5.3
			c5.25,0,9.58,1.77,13.02,5.3c3.43,3.54,5.15,7.93,5.15,13.17v76.91c0,12.31,2.73,21.45,8.18,27.4c5.45,5.96,13.62,8.93,24.53,8.93
			c11.1,0,19.38-2.97,24.83-8.93c5.45-5.95,8.18-15.09,8.18-27.4v-76.91c0-5.24,1.71-9.64,5.15-13.17
			C698.89,803.89,703.23,802.12,708.48,802.12z"/>
		<path class="st2" d="M756.62,938.99c-2.02-2.83-2.93-6.46-2.72-10.9c0.2-4.44,2.82-8.28,7.87-11.51
			c3.23-2.02,6.66-2.88,10.29-2.57c3.63,0.3,7.16,2.17,10.6,5.61c5.86,5.85,12.01,10.39,18.47,13.62
			c6.46,3.23,14.54,4.85,24.23,4.85c3.03-0.2,6.36-0.65,9.99-1.36c3.63-0.71,6.81-2.32,9.54-4.85c2.72-2.52,4.09-6.41,4.09-11.66
			c0-4.44-1.51-7.97-4.54-10.6c-3.03-2.62-7.02-4.85-11.96-6.66c-4.95-1.82-10.45-3.53-16.5-5.14c-6.26-1.82-12.67-3.83-19.23-6.06
			c-6.56-2.21-12.56-5.09-18.02-8.63c-5.45-3.52-9.89-8.22-13.32-14.08c-3.43-5.85-5.15-13.22-5.15-22.11
			c0-10.09,2.82-18.67,8.48-25.74c5.65-7.06,12.97-12.51,21.95-16.35c8.98-3.83,18.42-5.76,28.31-5.76c6.25,0,12.82,0.76,19.68,2.27
			c6.86,1.51,13.42,3.94,19.68,7.27c6.26,3.33,11.51,7.72,15.75,13.17c2.22,3.02,3.53,6.66,3.94,10.9c0.4,4.24-1.51,8.07-5.75,11.5
			c-3.03,2.42-6.56,3.49-10.6,3.18c-4.04-0.3-7.37-1.66-9.99-4.09c-3.44-4.44-8.03-7.97-13.78-10.6
			c-5.75-2.63-12.37-3.94-19.83-3.94c-3.03,0-6.31,0.35-9.84,1.06c-3.53,0.71-6.61,2.23-9.24,4.54c-2.63,2.32-3.94,6.01-3.94,11.05
			c0,4.64,1.52,8.33,4.54,11.05c3.03,2.72,7.11,4.95,12.26,6.66c5.15,1.71,10.65,3.38,16.5,4.99c6.06,1.62,12.21,3.54,18.47,5.76
			c6.25,2.22,12.01,5.14,17.26,8.78c5.25,3.63,9.49,8.33,12.72,14.08c3.23,5.75,4.85,13.07,4.85,21.95
			c0,10.29-3.03,19.08-9.09,26.34c-6.05,7.26-13.62,12.77-22.71,16.5c-9.08,3.73-18.37,5.61-27.86,5.61
			c-11.91,0-23.82-2.08-35.73-6.21C774.38,956.8,764.49,949.48,756.62,938.99z"/>
		<path class="st2" d="M1004.61,786.98c-5.25,0-9.65-1.61-13.17-4.85c-3.54-3.23-5.3-7.47-5.3-12.72c0-5.24,1.76-9.43,5.3-12.56
			c3.53-3.13,7.92-4.69,13.17-4.69h134.44c5.25,0,9.64,1.62,13.17,4.85c3.53,3.23,5.3,7.47,5.3,12.72s-1.77,9.44-5.3,12.56
			c-3.53,3.13-7.92,4.69-13.17,4.69H1004.61z M1071.53,964.12c-5.66,0-10.3-1.77-13.93-5.3c-3.63-3.52-5.45-7.91-5.45-13.17V770.02
			h39.36v175.62c0,5.25-1.87,9.64-5.6,13.17C1082.17,962.35,1077.38,964.12,1071.53,964.12z"/>
		<path class="st2" d="M1226.26,967.15c-17.16,0-32.05-3.58-44.66-10.75c-12.62-7.17-22.31-16.91-29.07-29.22
			c-6.76-12.31-10.14-26.24-10.14-41.79c0-18.16,3.68-33.66,11.05-46.48c7.36-12.82,17-22.66,28.92-29.53
			c11.91-6.86,24.53-10.29,37.85-10.29c10.29,0,20.03,2.12,29.22,6.36c9.18,4.24,17.31,10.05,24.37,17.41
			c7.06,7.37,12.67,15.9,16.81,25.59c4.13,9.69,6.21,19.99,6.21,30.89c-0.2,4.85-2.12,8.78-5.75,11.81
			c-3.63,3.02-7.87,4.54-12.72,4.54h-115.67l-9.09-30.28h111.13l-6.66,6.05v-8.17c-0.41-5.85-2.47-11.1-6.21-15.75
			c-3.74-4.64-8.38-8.33-13.93-11.05c-5.55-2.73-11.46-4.09-17.71-4.09c-6.06,0-11.71,0.81-16.96,2.42
			c-5.25,1.61-9.79,4.34-13.63,8.17c-3.84,3.83-6.86,8.98-9.08,15.44c-2.22,6.46-3.33,14.64-3.33,24.52
			c0,10.9,2.27,20.14,6.81,27.71c4.54,7.57,10.39,13.32,17.56,17.26c7.16,3.94,14.79,5.9,22.86,5.9c7.47,0,13.42-0.61,17.86-1.82
			c4.44-1.21,8.03-2.68,10.75-4.39c2.72-1.71,5.19-3.18,7.42-4.39c3.63-1.82,7.06-2.73,10.29-2.73c4.44,0,8.12,1.51,11.05,4.54
			c2.92,3.03,4.39,6.56,4.39,10.6c0,5.45-2.83,10.4-8.48,14.84c-5.25,4.44-12.62,8.33-22.11,11.66
			C1246.14,965.48,1236.35,967.15,1226.26,967.15z"/>
		<path class="st2" d="M1319.21,938.99c-2.02-2.83-2.93-6.46-2.72-10.9c0.2-4.44,2.82-8.28,7.87-11.51
			c3.23-2.02,6.66-2.88,10.29-2.57c3.63,0.3,7.16,2.17,10.6,5.61c5.86,5.85,12.01,10.39,18.47,13.62
			c6.46,3.23,14.54,4.85,24.22,4.85c3.03-0.2,6.36-0.65,9.99-1.36c3.63-0.71,6.81-2.32,9.54-4.85c2.72-2.52,4.09-6.41,4.09-11.66
			c0-4.44-1.51-7.97-4.54-10.6c-3.03-2.62-7.02-4.85-11.96-6.66c-4.95-1.82-10.45-3.53-16.5-5.14c-6.26-1.82-12.67-3.83-19.23-6.06
			c-6.56-2.21-12.56-5.09-18.02-8.63c-5.45-3.52-9.89-8.22-13.32-14.08c-3.43-5.85-5.15-13.22-5.15-22.11
			c0-10.09,2.82-18.67,8.48-25.74c5.65-7.06,12.97-12.51,21.95-16.35c8.98-3.83,18.42-5.76,28.31-5.76c6.25,0,12.82,0.76,19.68,2.27
			c6.86,1.51,13.42,3.94,19.68,7.27c6.26,3.33,11.51,7.72,15.75,13.17c2.22,3.02,3.53,6.66,3.94,10.9c0.4,4.24-1.51,8.07-5.75,11.5
			c-3.03,2.42-6.56,3.49-10.6,3.18c-4.04-0.3-7.37-1.66-9.99-4.09c-3.44-4.44-8.03-7.97-13.78-10.6
			c-5.75-2.63-12.37-3.94-19.83-3.94c-3.03,0-6.31,0.35-9.84,1.06c-3.53,0.71-6.61,2.23-9.24,4.54c-2.63,2.32-3.94,6.01-3.94,11.05
			c0,4.64,1.52,8.33,4.54,11.05c3.03,2.72,7.11,4.95,12.26,6.66c5.15,1.71,10.65,3.38,16.5,4.99c6.06,1.62,12.21,3.54,18.47,5.76
			c6.25,2.22,12.01,5.14,17.26,8.78c5.25,3.63,9.49,8.33,12.72,14.08c3.23,5.75,4.85,13.07,4.85,21.95
			c0,10.29-3.03,19.08-9.09,26.34c-6.05,7.26-13.62,12.77-22.71,16.5c-9.08,3.73-18.37,5.61-27.86,5.61
			c-11.91,0-23.82-2.08-35.73-6.21C1336.97,956.8,1327.09,949.48,1319.21,938.99z"/>
		<path class="st2" d="M1476.36,805.14h71.76c4.84,0,8.88,1.62,12.11,4.85c3.23,3.23,4.84,7.27,4.84,12.12
			c0,4.64-1.62,8.53-4.84,11.65c-3.23,3.13-7.27,4.69-12.11,4.69h-71.76c-4.84,0-8.89-1.61-12.11-4.85
			c-3.23-3.23-4.84-7.26-4.84-12.11c0-4.64,1.61-8.53,4.84-11.66C1467.48,806.71,1471.52,805.14,1476.36,805.14z M1508.76,767.3
			c5.25,0,9.54,1.77,12.87,5.3c3.33,3.54,5,7.93,5,13.17v134.75c0,2.83,0.55,5.15,1.66,6.97c1.11,1.82,2.62,3.13,4.54,3.94
			c1.92,0.81,3.98,1.21,6.21,1.21c2.42,0,4.64-0.46,6.66-1.37c2.02-0.9,4.34-1.36,6.97-1.36c2.82,0,5.4,1.32,7.72,3.94
			c2.32,2.63,3.48,6.26,3.48,10.9c0,5.66-3.08,10.29-9.23,13.93c-6.16,3.63-12.77,5.45-19.83,5.45c-4.24,0-8.93-0.35-14.08-1.06
			c-5.15-0.7-9.99-2.42-14.53-5.14c-4.54-2.73-8.33-6.92-11.36-12.56s-4.54-13.43-4.54-23.32V785.77c0-5.24,1.77-9.64,5.3-13.17
			C1499.12,769.07,1503.51,767.3,1508.76,767.3z"/>
		<path class="st2" d="M1754.33,967.15c-14.13,0-26.85-1.77-38.15-5.3c-11.31-3.53-22.1-9.74-32.4-18.62
			c-2.63-2.22-4.64-4.75-6.05-7.57c-1.41-2.82-2.12-5.65-2.12-8.48c0-4.64,1.66-8.73,4.99-12.26c3.33-3.53,7.52-5.3,12.57-5.3
			c3.83,0,7.27,1.21,10.29,3.64c7.67,6.26,15.29,11,22.86,14.23c7.57,3.23,16.91,4.85,28.01,4.85c7.47,0,14.33-1.16,20.59-3.49
			c6.25-2.32,11.3-5.45,15.14-9.38c3.83-3.94,5.75-8.43,5.75-13.48c0-6.05-1.82-11.2-5.45-15.44c-3.63-4.24-9.19-7.82-16.66-10.75
			c-7.47-2.92-16.96-5.19-28.46-6.81c-10.9-1.61-20.49-4.09-28.76-7.41c-8.28-3.33-15.19-7.57-20.74-12.72
			c-5.55-5.14-9.74-11.2-12.56-18.16c-2.83-6.97-4.24-14.79-4.24-23.47c0-13.12,3.38-24.33,10.14-33.61
			c6.76-9.28,15.9-16.35,27.4-21.19c11.51-4.85,24.22-7.27,38.15-7.27c13.12,0,25.28,1.97,36.49,5.91
			c11.2,3.94,20.33,8.93,27.4,14.99c5.85,4.64,8.78,9.99,8.78,16.04c0,4.44-1.72,8.48-5.15,12.12c-3.43,3.63-7.47,5.45-12.11,5.45
			c-3.03,0-5.75-0.9-8.18-2.73c-3.23-2.82-7.57-5.5-13.02-8.02c-5.45-2.52-11.2-4.64-17.26-6.36c-6.05-1.71-11.71-2.57-16.96-2.57
			c-8.68,0-16,1.11-21.95,3.33c-5.96,2.22-10.45,5.25-13.47,9.09c-3.03,3.83-4.54,8.28-4.54,13.32c0,6.06,1.77,11.05,5.3,14.99
			c3.53,3.94,8.63,7.07,15.29,9.39c6.66,2.32,14.63,4.39,23.92,6.21c12.11,2.23,22.76,4.85,31.94,7.88
			c9.18,3.02,16.81,6.92,22.86,11.65c6.05,4.75,10.6,10.7,13.62,17.87c3.03,7.17,4.54,15.9,4.54,26.19
			c0,13.12-3.63,24.43-10.9,33.91c-7.27,9.49-16.8,16.76-28.61,21.8C1780.83,964.62,1768.06,967.15,1754.33,967.15z"/>
		<path class="st2" d="M1940.24,967.15c-17.16,0-32.05-3.58-44.66-10.75c-12.62-7.17-22.31-16.91-29.07-29.22
			c-6.76-12.31-10.14-26.24-10.14-41.79c0-18.16,3.68-33.66,11.05-46.48c7.36-12.82,17-22.66,28.92-29.53
			c11.91-6.86,24.53-10.29,37.85-10.29c10.29,0,20.03,2.12,29.22,6.36c9.18,4.24,17.31,10.05,24.37,17.41
			c7.06,7.37,12.67,15.9,16.81,25.59c4.13,9.69,6.21,19.99,6.21,30.89c-0.2,4.85-2.12,8.78-5.75,11.81
			c-3.63,3.02-7.87,4.54-12.72,4.54h-115.67l-9.09-30.28h111.13l-6.66,6.05v-8.17c-0.41-5.85-2.47-11.1-6.21-15.75
			c-3.74-4.64-8.38-8.33-13.93-11.05c-5.55-2.73-11.46-4.09-17.71-4.09c-6.06,0-11.71,0.81-16.96,2.42
			c-5.25,1.61-9.79,4.34-13.63,8.17c-3.84,3.83-6.86,8.98-9.08,15.44c-2.22,6.46-3.33,14.64-3.33,24.52
			c0,10.9,2.27,20.14,6.81,27.71c4.54,7.57,10.39,13.32,17.56,17.26c7.16,3.94,14.79,5.9,22.86,5.9c7.47,0,13.42-0.61,17.86-1.82
			c4.44-1.21,8.03-2.68,10.75-4.39c2.72-1.71,5.19-3.18,7.42-4.39c3.63-1.82,7.06-2.73,10.29-2.73c4.44,0,8.12,1.51,11.05,4.54
			c2.92,3.03,4.39,6.56,4.39,10.6c0,5.45-2.83,10.4-8.48,14.84c-5.25,4.44-12.62,8.33-22.11,11.66
			C1960.12,965.48,1950.33,967.15,1940.24,967.15z"/>
		<path class="st2" d="M2060.76,964.12c-5.25,0-9.59-1.77-13.02-5.3c-3.44-3.52-5.15-7.91-5.15-13.17V820.59
			c0-5.24,1.71-9.64,5.15-13.17c3.43-3.52,7.77-5.3,13.02-5.3c5.25,0,9.58,1.77,13.02,5.3c3.43,3.54,5.15,7.93,5.15,13.17v28.46
			l-2.12-20.28c2.22-4.85,5.1-9.14,8.63-12.87c3.53-3.73,7.52-6.86,11.96-9.38c4.44-2.52,9.18-4.39,14.23-5.61
			c5.04-1.21,10.09-1.82,15.14-1.82c6.05,0,11.15,1.72,15.29,5.15c4.13,3.44,6.21,7.47,6.21,12.11c0,6.66-1.72,11.46-5.15,14.39
			c-3.44,2.93-7.17,4.39-11.2,4.39c-3.84,0-7.32-0.71-10.45-2.12c-3.13-1.41-6.71-2.12-10.75-2.12c-3.63,0-7.32,0.86-11.05,2.57
			c-3.74,1.72-7.17,4.39-10.29,8.03c-3.13,3.63-5.66,8.12-7.57,13.47c-1.92,5.35-2.88,11.66-2.88,18.93v71.76
			c0,5.25-1.72,9.64-5.15,13.17C2070.34,962.35,2066.01,964.12,2060.76,964.12z"/>
		<path class="st2" d="M2189.74,782.44c-6.86,0-11.71-1.11-14.53-3.33c-2.83-2.21-4.24-6.15-4.24-11.81v-5.75
			c0-5.85,1.56-9.84,4.69-11.96c3.13-2.12,7.92-3.18,14.38-3.18c7.06,0,12.01,1.11,14.84,3.33c2.82,2.23,4.24,6.16,4.24,11.81v5.75
			c0,5.86-1.51,9.84-4.54,11.96C2201.55,781.37,2196.6,782.44,2189.74,782.44z M2208.21,945.65c0,5.25-1.72,9.64-5.15,13.17
			c-3.44,3.54-7.77,5.3-13.02,5.3c-5.25,0-9.59-1.77-13.02-5.3c-3.44-3.52-5.15-7.91-5.15-13.17V820.59c0-5.24,1.71-9.64,5.15-13.17
			c3.43-3.52,7.77-5.3,13.02-5.3c5.25,0,9.58,1.77,13.02,5.3c3.43,3.54,5.15,7.93,5.15,13.17V945.65z"/>
		<path class="st2" d="M2321.76,967.15c-17.16,0-32.05-3.58-44.66-10.75c-12.62-7.17-22.31-16.91-29.07-29.22
			c-6.76-12.31-10.14-26.24-10.14-41.79c0-18.16,3.68-33.66,11.05-46.48c7.36-12.82,17-22.66,28.92-29.53
			c11.91-6.86,24.53-10.29,37.85-10.29c10.29,0,20.03,2.12,29.22,6.36c9.18,4.24,17.31,10.05,24.37,17.41
			c7.06,7.37,12.67,15.9,16.81,25.59c4.13,9.69,6.21,19.99,6.21,30.89c-0.2,4.85-2.12,8.78-5.75,11.81
			c-3.63,3.02-7.87,4.54-12.72,4.54h-115.67l-9.09-30.28h111.13l-6.66,6.05v-8.17c-0.41-5.85-2.47-11.1-6.21-15.75
			c-3.74-4.64-8.38-8.33-13.93-11.05c-5.55-2.73-11.46-4.09-17.71-4.09c-6.06,0-11.71,0.81-16.96,2.42
			c-5.25,1.61-9.79,4.34-13.63,8.17c-3.84,3.83-6.86,8.98-9.08,15.44c-2.22,6.46-3.33,14.64-3.33,24.52
			c0,10.9,2.27,20.14,6.81,27.71c4.54,7.57,10.39,13.32,17.56,17.26c7.16,3.94,14.79,5.9,22.86,5.9c7.47,0,13.42-0.61,17.86-1.82
			c4.44-1.21,8.03-2.68,10.75-4.39c2.72-1.71,5.19-3.18,7.42-4.39c3.63-1.82,7.06-2.73,10.29-2.73c4.44,0,8.12,1.51,11.05,4.54
			c2.92,3.03,4.39,6.56,4.39,10.6c0,5.45-2.83,10.4-8.48,14.84c-5.25,4.44-12.62,8.33-22.11,11.66
			C2341.64,965.48,2331.85,967.15,2321.76,967.15z"/>
		<path class="st2" d="M2414.72,938.99c-2.02-2.83-2.93-6.46-2.72-10.9c0.2-4.44,2.82-8.28,7.87-11.51
			c3.23-2.02,6.66-2.88,10.29-2.57c3.63,0.3,7.17,2.17,10.6,5.61c5.86,5.85,12.01,10.39,18.47,13.62
			c6.46,3.23,14.54,4.85,24.23,4.85c3.03-0.2,6.36-0.65,9.99-1.36c3.63-0.71,6.81-2.32,9.54-4.85c2.72-2.52,4.09-6.41,4.09-11.66
			c0-4.44-1.51-7.97-4.54-10.6c-3.03-2.62-7.02-4.85-11.96-6.66c-4.95-1.82-10.45-3.53-16.5-5.14c-6.26-1.82-12.67-3.83-19.23-6.06
			c-6.56-2.21-12.56-5.09-18.02-8.63c-5.45-3.52-9.89-8.22-13.32-14.08c-3.43-5.85-5.15-13.22-5.15-22.11
			c0-10.09,2.82-18.67,8.48-25.74c5.65-7.06,12.97-12.51,21.95-16.35c8.98-3.83,18.42-5.76,28.31-5.76c6.25,0,12.82,0.76,19.68,2.27
			c6.86,1.51,13.42,3.94,19.68,7.27c6.26,3.33,11.51,7.72,15.75,13.17c2.22,3.02,3.53,6.66,3.94,10.9c0.4,4.24-1.51,8.07-5.75,11.5
			c-3.03,2.42-6.56,3.49-10.6,3.18c-4.04-0.3-7.37-1.66-9.99-4.09c-3.44-4.44-8.03-7.97-13.78-10.6
			c-5.75-2.63-12.37-3.94-19.83-3.94c-3.03,0-6.31,0.35-9.84,1.06c-3.53,0.71-6.61,2.23-9.24,4.54c-2.63,2.32-3.94,6.01-3.94,11.05
			c0,4.64,1.52,8.33,4.54,11.05c3.03,2.72,7.11,4.95,12.26,6.66c5.15,1.71,10.65,3.38,16.5,4.99c6.06,1.62,12.21,3.54,18.47,5.76
			c6.25,2.22,12.01,5.14,17.26,8.78c5.25,3.63,9.49,8.33,12.72,14.08c3.23,5.75,4.85,13.07,4.85,21.95
			c0,10.29-3.03,19.08-9.08,26.34c-6.05,7.26-13.62,12.77-22.71,16.5c-9.08,3.73-18.37,5.61-27.86,5.61
			c-11.91,0-23.82-2.08-35.73-6.21C2432.48,956.8,2422.59,949.48,2414.72,938.99z"/>
	</g>
</g>
</svg>
