<?xml version="1.0" encoding="utf-8"?>
<!-- Generator: Adobe Illustrator 25.0.1, SVG Export Plug-In . SVG Version: 6.00 Build 0)  -->
<svg version="1.1" id="Layer_1" xmlns="http://www.w3.org/2000/svg" xmlns:xlink="http://www.w3.org/1999/xlink" x="0px" y="0px"
	 viewBox="0 0 2560 431.7" style="enable-background:new 0 0 2560 431.7;" xml:space="preserve">
<style type="text/css">
	.st0{fill:#181A2A;}
	.st1{fill:#4B6BFB;}
	.st2{fill:#B3C5EF;}
	.st3{fill:#3ABFF8;}
</style>
<g>
	<g>
		<g>
			<path class="st2" d="M112.43,166.59l165.12,242.46c-52.13-33.41-139.11-63.49-257.02-16.55L112.43,166.59z"/>
			<path class="st2" d="M290.78,227.38c0,17.35,10.11,32.3,24.75,39.39v130.26L129.7,124.15l41.22-101.28c0,0,117.6-9,163.67,80.73
				v80C310.38,183.6,290.78,203.2,290.78,227.38z"/>
		</g>
		<g>
			<path class="st3" d="M378.37,227.38c0-24.18-19.6-43.78-43.78-43.78v-80c46.07-89.73,163.63-80.73,163.63-80.73l41.22,101.32
				L353.66,397.04V266.77C368.27,259.68,378.37,244.73,378.37,227.38z"/>
			<path class="st3" d="M648.63,392.5c-117.91-46.94-204.89-16.85-257.02,16.59l165.12-242.49L648.63,392.5z"/>
		</g>
	</g>
	<g>
		<path class="st2" d="M799.53,137.98c3.73,0,6.98,1.23,9.75,3.7c2.76,2.46,4.15,5.57,4.15,9.3c0,1.94-0.45,3.96-1.35,6.05
			l-55.35,129.52c-1.34,2.99-3.25,5.19-5.71,6.61c-2.47,1.42-4.97,2.13-7.51,2.13c-2.39-0.15-4.71-0.93-6.95-2.36
			c-2.24-1.41-3.96-3.47-5.15-6.16L676.06,156.8c-0.45-0.89-0.75-1.83-0.9-2.8c-0.15-0.97-0.22-1.91-0.22-2.8
			c0-4.33,1.57-7.65,4.71-9.97c3.14-2.31,6.12-3.47,8.96-3.47c5.67,0,9.78,2.92,12.32,8.74l49.07,115.4l-7.84,0.22L787.2,146.5
			C789.74,140.82,793.85,137.98,799.53,137.98z"/>
		<path class="st2" d="M886.02,297.53c-12.7,0-23.72-2.65-33.05-7.95c-9.34-5.3-16.51-12.51-21.51-21.63
			c-5.01-9.11-7.51-19.42-7.51-30.92c0-13.44,2.72-24.91,8.18-34.39c5.45-9.49,12.58-16.77,21.4-21.85
			c8.81-5.08,18.15-7.62,28.01-7.62c7.62,0,14.82,1.57,21.62,4.71c6.8,3.14,12.81,7.43,18.04,12.88
			c5.23,5.45,9.37,11.77,12.44,18.93c3.06,7.17,4.59,14.79,4.59,22.86c-0.15,3.59-1.57,6.5-4.26,8.74
			c-2.69,2.24-5.82,3.36-9.41,3.36h-85.6l-6.72-22.41h82.24l-4.93,4.48v-6.05c-0.3-4.33-1.83-8.22-4.59-11.65
			c-2.77-3.44-6.2-6.16-10.31-8.18c-4.11-2.02-8.48-3.02-13.11-3.02c-4.48,0-8.67,0.6-12.55,1.79c-3.89,1.19-7.25,3.21-10.08,6.05
			c-2.84,2.84-5.08,6.65-6.72,11.43c-1.65,4.78-2.47,10.83-2.47,18.15c0,8.07,1.68,14.9,5.04,20.51c3.36,5.6,7.69,9.86,13,12.77
			c5.3,2.91,10.94,4.37,16.92,4.37c5.52,0,9.93-0.45,13.22-1.34c3.28-0.9,5.94-1.98,7.96-3.25c2.02-1.27,3.84-2.36,5.49-3.25
			c2.69-1.34,5.23-2.02,7.62-2.02c3.28,0,6.01,1.12,8.18,3.36c2.16,2.24,3.25,4.86,3.25,7.84c0,4.04-2.09,7.7-6.27,10.98
			c-3.89,3.29-9.34,6.16-16.36,8.63C900.74,296.29,893.49,297.53,886.02,297.53z"/>
		<path class="st2" d="M1025.85,173.16c11.05,0,19.46,2.32,25.21,6.95c5.75,4.63,9.71,10.79,11.88,18.48
			c2.17,7.7,3.25,16.25,3.25,25.66v57.37c0,3.89-1.27,7.14-3.81,9.74c-2.54,2.62-5.75,3.92-9.64,3.92c-3.89,0-7.1-1.31-9.64-3.92
			c-2.54-2.61-3.81-5.86-3.81-9.74v-57.37c0-4.93-0.64-9.37-1.91-13.33c-1.27-3.96-3.55-7.14-6.83-9.52
			c-3.29-2.39-7.99-3.59-14.12-3.59c-5.98,0-11.02,1.2-15.13,3.59s-7.25,5.57-9.41,9.52c-2.17,3.96-3.25,8.4-3.25,13.33v57.37
			c0,3.89-1.27,7.14-3.81,9.74c-2.54,2.62-5.75,3.92-9.64,3.92c-3.89,0-7.1-1.31-9.64-3.92c-2.54-2.61-3.81-5.86-3.81-9.74v-92.55
			c0-3.88,1.27-7.13,3.81-9.75c2.54-2.61,5.75-3.92,9.64-3.92c3.88,0,7.09,1.31,9.64,3.92c2.54,2.62,3.81,5.87,3.81,9.75v9.64
			l-3.36-0.67c1.35-2.54,3.28-5.27,5.83-8.18c2.54-2.91,5.52-5.64,8.96-8.18c3.43-2.54,7.32-4.59,11.65-6.16
			C1016.06,173.95,1020.77,173.16,1025.85,173.16z"/>
		<path class="st2" d="M1184.27,175.4c3.88,0,7.09,1.31,9.64,3.92c2.54,2.62,3.81,5.87,3.81,9.75v56.92
			c0,15.83-4.41,28.38-13.22,37.64c-8.82,9.27-21.51,13.9-38.09,13.9c-16.58,0-29.24-4.63-37.98-13.9
			c-8.74-9.26-13.11-21.81-13.11-37.64v-56.92c0-3.88,1.27-7.13,3.81-9.75c2.54-2.61,5.75-3.92,9.64-3.92
			c3.88,0,7.09,1.31,9.64,3.92c2.54,2.62,3.81,5.87,3.81,9.75v56.92c0,9.11,2.02,15.87,6.05,20.28c4.03,4.41,10.08,6.61,18.15,6.61
			c8.21,0,14.34-2.2,18.37-6.61c4.03-4.41,6.05-11.17,6.05-20.28v-56.92c0-3.88,1.27-7.13,3.81-9.75
			C1177.17,176.71,1180.38,175.4,1184.27,175.4z"/>
		<path class="st2" d="M1219.89,276.69c-1.49-2.09-2.17-4.78-2.02-8.07c0.15-3.29,2.09-6.12,5.83-8.52
			c2.39-1.49,4.93-2.13,7.62-1.91c2.69,0.22,5.3,1.61,7.84,4.15c4.33,4.33,8.89,7.69,13.67,10.08c4.78,2.39,10.76,3.59,17.93,3.59
			c2.24-0.15,4.71-0.48,7.4-1.01c2.69-0.52,5.04-1.72,7.06-3.59c2.02-1.87,3.02-4.74,3.02-8.63c0-3.28-1.12-5.9-3.36-7.84
			c-2.24-1.94-5.19-3.59-8.85-4.93c-3.66-1.34-7.73-2.61-12.21-3.81c-4.63-1.35-9.38-2.84-14.23-4.49
			c-4.86-1.64-9.3-3.77-13.33-6.39c-4.03-2.61-7.32-6.08-9.86-10.42c-2.54-4.33-3.81-9.78-3.81-16.36c0-7.47,2.09-13.82,6.27-19.05
			c4.18-5.23,9.6-9.26,16.25-12.1c6.65-2.84,13.63-4.26,20.95-4.26c4.63,0,9.49,0.56,14.57,1.68c5.08,1.12,9.93,2.91,14.56,5.38
			c4.63,2.46,8.52,5.71,11.65,9.75c1.64,2.24,2.61,4.93,2.91,8.07c0.3,3.14-1.12,5.97-4.26,8.51c-2.24,1.79-4.86,2.58-7.84,2.36
			c-2.99-0.22-5.45-1.23-7.39-3.02c-2.54-3.29-5.94-5.9-10.2-7.84c-4.26-1.94-9.15-2.91-14.68-2.91c-2.24,0-4.67,0.26-7.28,0.78
			c-2.61,0.52-4.9,1.65-6.84,3.36c-1.94,1.72-2.91,4.45-2.91,8.18c0,3.44,1.12,6.16,3.36,8.18c2.24,2.01,5.26,3.66,9.07,4.93
			c3.81,1.27,7.88,2.5,12.21,3.69c4.48,1.2,9.04,2.62,13.67,4.26c4.63,1.64,8.89,3.81,12.77,6.5c3.88,2.69,7.02,6.16,9.41,10.42
			c2.39,4.26,3.59,9.67,3.59,16.25c0,7.62-2.24,14.12-6.72,19.5c-4.48,5.37-10.08,9.45-16.81,12.21
			c-6.72,2.76-13.59,4.15-20.61,4.15c-8.82,0-17.63-1.54-26.44-4.6C1233.04,289.87,1225.72,284.46,1219.89,276.69z"/>
		<path class="st2" d="M1403.41,164.2c-3.89,0-7.14-1.19-9.75-3.59c-2.62-2.39-3.92-5.52-3.92-9.41c0-3.88,1.3-6.98,3.92-9.3
			c2.61-2.32,5.86-3.47,9.75-3.47h99.49c3.88,0,7.13,1.2,9.75,3.59c2.61,2.39,3.92,5.52,3.92,9.41c0,3.89-1.31,6.99-3.92,9.3
			c-2.61,2.32-5.86,3.47-9.75,3.47H1403.41z M1452.94,295.28c-4.19,0-7.62-1.31-10.31-3.92c-2.69-2.61-4.03-5.86-4.03-9.74V151.65
			h29.13v129.97c0,3.89-1.38,7.14-4.15,9.74C1460.81,293.98,1457.27,295.28,1452.94,295.28z"/>
		<path class="st2" d="M1567.44,297.53c-12.7,0-23.72-2.65-33.05-7.95c-9.34-5.3-16.51-12.51-21.51-21.63
			c-5.01-9.11-7.51-19.42-7.51-30.92c0-13.44,2.72-24.91,8.18-34.39c5.45-9.49,12.58-16.77,21.4-21.85
			c8.81-5.08,18.15-7.62,28.01-7.62c7.62,0,14.82,1.57,21.62,4.71c6.8,3.14,12.81,7.43,18.04,12.88
			c5.23,5.45,9.37,11.77,12.44,18.93c3.06,7.17,4.59,14.79,4.59,22.86c-0.15,3.59-1.57,6.5-4.26,8.74
			c-2.69,2.24-5.82,3.36-9.41,3.36h-85.6l-6.72-22.41h82.24l-4.93,4.48v-6.05c-0.3-4.33-1.83-8.22-4.59-11.65
			c-2.77-3.44-6.2-6.16-10.31-8.18c-4.11-2.02-8.48-3.02-13.11-3.02c-4.48,0-8.67,0.6-12.55,1.79c-3.89,1.19-7.25,3.21-10.08,6.05
			c-2.84,2.84-5.08,6.65-6.72,11.43c-1.65,4.78-2.46,10.83-2.46,18.15c0,8.07,1.68,14.9,5.04,20.51c3.36,5.6,7.69,9.86,13,12.77
			c5.3,2.91,10.94,4.37,16.92,4.37c5.52,0,9.93-0.45,13.22-1.34c3.28-0.9,5.94-1.98,7.96-3.25c2.02-1.27,3.84-2.36,5.49-3.25
			c2.69-1.34,5.23-2.02,7.62-2.02c3.28,0,6.01,1.12,8.18,3.36c2.16,2.24,3.25,4.86,3.25,7.84c0,4.04-2.09,7.7-6.27,10.98
			c-3.89,3.29-9.34,6.16-16.36,8.63C1582.15,296.29,1574.9,297.53,1567.44,297.53z"/>
		<path class="st2" d="M1636.23,276.69c-1.49-2.09-2.17-4.78-2.02-8.07c0.15-3.29,2.09-6.12,5.83-8.52
			c2.39-1.49,4.93-2.13,7.62-1.91c2.69,0.22,5.3,1.61,7.84,4.15c4.33,4.33,8.89,7.69,13.67,10.08c4.78,2.39,10.76,3.59,17.93,3.59
			c2.24-0.15,4.71-0.48,7.4-1.01c2.69-0.52,5.04-1.72,7.06-3.59c2.02-1.87,3.02-4.74,3.02-8.63c0-3.28-1.12-5.9-3.36-7.84
			c-2.24-1.94-5.19-3.59-8.85-4.93c-3.66-1.34-7.73-2.61-12.21-3.81c-4.63-1.35-9.38-2.84-14.23-4.49
			c-4.86-1.64-9.3-3.77-13.33-6.39c-4.03-2.61-7.32-6.08-9.86-10.42c-2.54-4.33-3.81-9.78-3.81-16.36c0-7.47,2.09-13.82,6.27-19.05
			c4.18-5.23,9.6-9.26,16.25-12.1c6.65-2.84,13.63-4.26,20.95-4.26c4.63,0,9.49,0.56,14.57,1.68c5.08,1.12,9.93,2.91,14.56,5.38
			c4.63,2.46,8.52,5.71,11.65,9.75c1.64,2.24,2.61,4.93,2.91,8.07c0.3,3.14-1.12,5.97-4.26,8.51c-2.24,1.79-4.86,2.58-7.84,2.36
			c-2.99-0.22-5.45-1.23-7.39-3.02c-2.54-3.29-5.94-5.9-10.2-7.84c-4.26-1.94-9.15-2.91-14.68-2.91c-2.24,0-4.67,0.26-7.28,0.78
			c-2.61,0.52-4.89,1.65-6.84,3.36c-1.94,1.72-2.91,4.45-2.91,8.18c0,3.44,1.12,6.16,3.36,8.18c2.24,2.01,5.26,3.66,9.07,4.93
			c3.81,1.27,7.88,2.5,12.21,3.69c4.48,1.2,9.04,2.62,13.67,4.26c4.63,1.64,8.89,3.81,12.77,6.5c3.88,2.69,7.02,6.16,9.41,10.42
			c2.39,4.26,3.59,9.67,3.59,16.25c0,7.62-2.24,14.12-6.72,19.5c-4.48,5.37-10.08,9.45-16.81,12.21
			c-6.72,2.76-13.59,4.15-20.61,4.15c-8.82,0-17.63-1.54-26.44-4.6C1649.37,289.87,1642.05,284.46,1636.23,276.69z"/>
		<path class="st2" d="M1752.52,177.64h53.11c3.58,0,6.57,1.2,8.96,3.59c2.39,2.39,3.58,5.38,3.58,8.97c0,3.44-1.2,6.31-3.58,8.62
			c-2.39,2.32-5.38,3.47-8.96,3.47h-53.11c-3.58,0-6.58-1.19-8.96-3.59c-2.39-2.39-3.58-5.37-3.58-8.96c0-3.44,1.19-6.31,3.58-8.63
			C1745.95,178.8,1748.94,177.64,1752.52,177.64z M1776.5,149.63c3.88,0,7.06,1.31,9.52,3.92c2.47,2.62,3.7,5.87,3.7,9.75v99.72
			c0,2.09,0.41,3.81,1.23,5.15c0.82,1.34,1.94,2.32,3.36,2.91c1.42,0.6,2.95,0.9,4.59,0.9c1.79,0,3.43-0.34,4.93-1.01
			c1.49-0.67,3.21-1.01,5.15-1.01c2.09,0,3.99,0.97,5.71,2.91c1.72,1.94,2.58,4.63,2.58,8.07c0,4.19-2.28,7.62-6.83,10.31
			c-4.56,2.69-9.45,4.03-14.68,4.03c-3.14,0-6.61-0.26-10.42-0.79c-3.81-0.52-7.4-1.79-10.75-3.81c-3.36-2.02-6.16-5.12-8.4-9.3
			c-2.24-4.18-3.36-9.94-3.36-17.26V163.3c0-3.88,1.31-7.13,3.92-9.75C1769.36,150.95,1772.61,149.63,1776.5,149.63z"/>
		<path class="st2" d="M1958.23,297.53c-10.46,0-19.87-1.31-28.23-3.92c-8.37-2.61-16.36-7.21-23.98-13.78
			c-1.94-1.64-3.44-3.51-4.48-5.6c-1.05-2.09-1.57-4.18-1.57-6.27c0-3.44,1.23-6.46,3.7-9.07s5.56-3.92,9.3-3.92
			c2.83,0,5.38,0.9,7.62,2.69c5.67,4.63,11.32,8.14,16.92,10.53c5.6,2.39,12.51,3.59,20.73,3.59c5.52,0,10.6-0.86,15.24-2.58
			c4.63-1.71,8.36-4.03,11.2-6.94c2.83-2.92,4.26-6.24,4.26-9.97c0-4.48-1.35-8.29-4.03-11.43c-2.69-3.14-6.8-5.79-12.33-7.95
			c-5.53-2.16-12.55-3.84-21.06-5.04c-8.06-1.19-15.16-3.02-21.29-5.49c-6.13-2.47-11.24-5.6-15.35-9.42
			c-4.11-3.81-7.21-8.29-9.3-13.44c-2.1-5.15-3.14-10.94-3.14-17.37c0-9.71,2.5-18,7.51-24.88c5.01-6.87,11.77-12.1,20.28-15.68
			c8.51-3.59,17.93-5.38,28.23-5.38c9.71,0,18.71,1.46,27,4.37c8.29,2.91,15.05,6.61,20.28,11.09c4.33,3.44,6.5,7.39,6.5,11.87
			c0,3.29-1.27,6.27-3.81,8.97c-2.54,2.69-5.53,4.03-8.96,4.03c-2.24,0-4.26-0.67-6.05-2.02c-2.39-2.09-5.6-4.07-9.64-5.94
			c-4.03-1.86-8.29-3.43-12.77-4.71c-4.48-1.27-8.67-1.91-12.55-1.91c-6.43,0-11.84,0.82-16.25,2.47c-4.41,1.64-7.73,3.89-9.97,6.72
			c-2.24,2.84-3.36,6.12-3.36,9.86c0,4.49,1.31,8.18,3.92,11.09c2.61,2.92,6.39,5.23,11.32,6.95c4.93,1.72,10.83,3.25,17.7,4.59
			c8.96,1.65,16.84,3.59,23.64,5.83c6.8,2.24,12.44,5.12,16.92,8.62c4.48,3.51,7.84,7.92,10.08,13.22
			c2.24,5.3,3.36,11.77,3.36,19.38c0,9.71-2.69,18.08-8.07,25.1c-5.38,7.02-12.44,12.4-21.17,16.13
			C1977.83,295.65,1968.38,297.53,1958.23,297.53z"/>
		<path class="st2" d="M2095.81,297.53c-12.7,0-23.72-2.65-33.05-7.95c-9.34-5.3-16.51-12.51-21.51-21.63
			c-5.01-9.11-7.51-19.42-7.51-30.92c0-13.44,2.72-24.91,8.18-34.39c5.45-9.49,12.58-16.77,21.4-21.85
			c8.81-5.08,18.15-7.62,28.01-7.62c7.62,0,14.82,1.57,21.62,4.71c6.8,3.14,12.81,7.43,18.04,12.88
			c5.23,5.45,9.37,11.77,12.44,18.93c3.06,7.17,4.59,14.79,4.59,22.86c-0.15,3.59-1.57,6.5-4.26,8.74
			c-2.69,2.24-5.82,3.36-9.41,3.36h-85.6l-6.72-22.41h82.24l-4.93,4.48v-6.05c-0.3-4.33-1.83-8.22-4.59-11.65
			c-2.77-3.44-6.2-6.16-10.31-8.18c-4.11-2.02-8.48-3.02-13.11-3.02c-4.48,0-8.67,0.6-12.55,1.79c-3.89,1.19-7.25,3.21-10.08,6.05
			c-2.84,2.84-5.08,6.65-6.72,11.43c-1.65,4.78-2.47,10.83-2.47,18.15c0,8.07,1.68,14.9,5.04,20.51c3.36,5.6,7.69,9.86,13,12.77
			c5.3,2.91,10.94,4.37,16.92,4.37c5.52,0,9.93-0.45,13.22-1.34c3.28-0.9,5.94-1.98,7.96-3.25c2.02-1.27,3.84-2.36,5.49-3.25
			c2.69-1.34,5.23-2.02,7.62-2.02c3.28,0,6.01,1.12,8.18,3.36c2.16,2.24,3.25,4.86,3.25,7.84c0,4.04-2.09,7.7-6.27,10.98
			c-3.89,3.29-9.34,6.16-16.36,8.63C2110.52,296.29,2103.27,297.53,2095.81,297.53z"/>
		<path class="st2" d="M2184.99,295.28c-3.89,0-7.1-1.31-9.64-3.92c-2.54-2.61-3.81-5.86-3.81-9.74v-92.55
			c0-3.88,1.27-7.13,3.81-9.75c2.54-2.61,5.75-3.92,9.64-3.92c3.88,0,7.09,1.31,9.64,3.92c2.54,2.62,3.81,5.87,3.81,9.75v21.06
			l-1.57-15.01c1.64-3.59,3.77-6.76,6.39-9.53c2.61-2.76,5.56-5.08,8.85-6.94c3.28-1.87,6.8-3.25,10.53-4.15
			c3.73-0.89,7.47-1.34,11.2-1.34c4.48,0,8.25,1.27,11.32,3.81c3.06,2.54,4.59,5.53,4.59,8.96c0,4.93-1.27,8.48-3.81,10.65
			c-2.54,2.17-5.3,3.25-8.29,3.25c-2.84,0-5.41-0.52-7.73-1.57c-2.32-1.04-4.97-1.57-7.95-1.57c-2.69,0-5.42,0.64-8.18,1.9
			c-2.76,1.27-5.3,3.25-7.62,5.94c-2.32,2.69-4.19,6.01-5.6,9.97c-1.42,3.96-2.13,8.63-2.13,14.01v53.11c0,3.89-1.27,7.14-3.81,9.74
			C2192.08,293.98,2188.87,295.28,2184.99,295.28z"/>
		<path class="st2" d="M2280.44,160.84c-5.08,0-8.66-0.82-10.75-2.47c-2.1-1.64-3.14-4.55-3.14-8.74v-4.26
			c0-4.33,1.15-7.29,3.47-8.85c2.32-1.57,5.86-2.35,10.64-2.35c5.23,0,8.89,0.82,10.98,2.46c2.09,1.65,3.14,4.56,3.14,8.74v4.26
			c0,4.34-1.12,7.28-3.36,8.85C2289.18,160.05,2285.52,160.84,2280.44,160.84z M2294.11,281.62c0,3.89-1.27,7.14-3.81,9.74
			c-2.54,2.62-5.75,3.92-9.64,3.92c-3.89,0-7.1-1.31-9.64-3.92c-2.54-2.61-3.81-5.86-3.81-9.74v-92.55c0-3.88,1.27-7.13,3.81-9.75
			c2.54-2.61,5.75-3.92,9.64-3.92c3.88,0,7.09,1.31,9.64,3.92c2.54,2.62,3.81,5.87,3.81,9.75V281.62z"/>
		<path class="st2" d="M2378.14,297.53c-12.7,0-23.72-2.65-33.05-7.95c-9.34-5.3-16.51-12.51-21.51-21.63
			c-5-9.11-7.51-19.42-7.51-30.92c0-13.44,2.72-24.91,8.18-34.39c5.45-9.49,12.58-16.77,21.4-21.85c8.81-5.08,18.15-7.62,28.01-7.62
			c7.62,0,14.82,1.57,21.62,4.71c6.8,3.14,12.81,7.43,18.04,12.88c5.23,5.45,9.37,11.77,12.44,18.93
			c3.06,7.17,4.59,14.79,4.59,22.86c-0.15,3.59-1.57,6.5-4.26,8.74c-2.69,2.24-5.82,3.36-9.41,3.36h-85.6l-6.72-22.41h82.24
			l-4.93,4.48v-6.05c-0.3-4.33-1.83-8.22-4.59-11.65c-2.77-3.44-6.2-6.16-10.31-8.18c-4.11-2.02-8.48-3.02-13.11-3.02
			c-4.48,0-8.67,0.6-12.55,1.79c-3.89,1.19-7.25,3.21-10.08,6.05c-2.84,2.84-5.08,6.65-6.72,11.43c-1.65,4.78-2.47,10.83-2.47,18.15
			c0,8.07,1.68,14.9,5.04,20.51c3.36,5.6,7.69,9.86,13,12.77c5.3,2.91,10.94,4.37,16.92,4.37c5.52,0,9.93-0.45,13.22-1.34
			c3.28-0.9,5.94-1.98,7.96-3.25c2.02-1.27,3.84-2.36,5.49-3.25c2.69-1.34,5.23-2.02,7.62-2.02c3.28,0,6.01,1.12,8.18,3.36
			c2.16,2.24,3.25,4.86,3.25,7.84c0,4.04-2.09,7.7-6.27,10.98c-3.89,3.29-9.34,6.16-16.36,8.63
			C2392.85,296.29,2385.61,297.53,2378.14,297.53z"/>
		<path class="st2" d="M2446.93,276.69c-1.49-2.09-2.17-4.78-2.02-8.07c0.15-3.29,2.09-6.12,5.83-8.52
			c2.39-1.49,4.93-2.13,7.62-1.91c2.69,0.22,5.3,1.61,7.84,4.15c4.33,4.33,8.89,7.69,13.67,10.08c4.78,2.39,10.76,3.59,17.93,3.59
			c2.24-0.15,4.71-0.48,7.4-1.01c2.69-0.52,5.04-1.72,7.06-3.59c2.02-1.87,3.02-4.74,3.02-8.63c0-3.28-1.12-5.9-3.36-7.84
			c-2.24-1.94-5.19-3.59-8.85-4.93c-3.66-1.34-7.73-2.61-12.21-3.81c-4.63-1.35-9.38-2.84-14.23-4.49
			c-4.85-1.64-9.3-3.77-13.33-6.39c-4.03-2.61-7.32-6.08-9.86-10.42c-2.54-4.33-3.81-9.78-3.81-16.36c0-7.47,2.09-13.82,6.27-19.05
			c4.18-5.23,9.6-9.26,16.25-12.1c6.65-2.84,13.63-4.26,20.95-4.26c4.63,0,9.49,0.56,14.57,1.68c5.08,1.12,9.93,2.91,14.56,5.38
			c4.63,2.46,8.52,5.71,11.65,9.75c1.64,2.24,2.61,4.93,2.91,8.07c0.3,3.14-1.12,5.97-4.26,8.51c-2.24,1.79-4.86,2.58-7.84,2.36
			c-2.99-0.22-5.45-1.23-7.39-3.02c-2.54-3.29-5.94-5.9-10.2-7.84c-4.26-1.94-9.15-2.91-14.68-2.91c-2.24,0-4.67,0.26-7.28,0.78
			c-2.61,0.52-4.9,1.65-6.84,3.36c-1.94,1.72-2.91,4.45-2.91,8.18c0,3.44,1.12,6.16,3.36,8.18c2.24,2.01,5.26,3.66,9.07,4.93
			c3.81,1.27,7.88,2.5,12.21,3.69c4.48,1.2,9.04,2.62,13.67,4.26c4.63,1.64,8.89,3.81,12.77,6.5c3.88,2.69,7.02,6.16,9.41,10.42
			c2.39,4.26,3.59,9.67,3.59,16.25c0,7.62-2.24,14.12-6.72,19.5c-4.48,5.37-10.08,9.45-16.81,12.21
			c-6.72,2.76-13.59,4.15-20.61,4.15c-8.82,0-17.63-1.54-26.44-4.6C2460.07,289.87,2452.76,284.46,2446.93,276.69z"/>
	</g>
</g>
</svg>
